<svg width="120" height="32" viewBox="0 0 120 32" fill="none" xmlns="http://www.w3.org/2000/svg">
<path d="M0 8C0 3.58172 3.58172 0 8 0H112C116.418 0 120 3.58172 120 8V24C120 28.4183 116.418 32 112 32H8C3.58172 32 0 28.4183 0 24V8Z" fill="#FF5151"/>
<path d="M42.0561 21H39.5796L39.5952 19.1719H42.0561C42.6707 19.1719 43.1889 19.0339 43.6108 18.7578C44.0327 18.4766 44.3504 18.0677 44.5639 17.5312C44.7827 16.9948 44.8921 16.3464 44.8921 15.5859V15.0312C44.8921 14.4479 44.8296 13.9349 44.7046 13.4922C44.5848 13.0495 44.4051 12.6771 44.1655 12.375C43.9259 12.0729 43.6316 11.8464 43.2827 11.6953C42.9337 11.5391 42.5327 11.4609 42.0796 11.4609H39.5327V9.625H42.0796C42.84 9.625 43.5353 9.75521 44.1655 10.0156C44.8009 10.2708 45.3504 10.638 45.8139 11.1172C46.2775 11.5964 46.6343 12.1693 46.8843 12.8359C47.1395 13.4974 47.2671 14.2344 47.2671 15.0469V15.5859C47.2671 16.3932 47.1395 17.1302 46.8843 17.7969C46.6343 18.4635 46.2775 19.0365 45.8139 19.5156C45.3556 19.9896 44.8061 20.3568 44.1655 20.6172C43.5301 20.8724 42.827 21 42.0561 21ZM40.9077 9.625V21H38.5639V9.625H40.9077ZM52.7202 21.1562C52.0639 21.1562 51.4754 21.0521 50.9546 20.8438C50.4337 20.6302 49.991 20.3359 49.6264 19.9609C49.2671 19.5859 48.991 19.151 48.7983 18.6562C48.6056 18.1562 48.5093 17.625 48.5093 17.0625V16.75C48.5093 16.1094 48.6004 15.5234 48.7827 14.9922C48.965 14.4609 49.2254 14 49.5639 13.6094C49.9077 13.2188 50.3244 12.9193 50.8139 12.7109C51.3035 12.4974 51.8556 12.3906 52.4702 12.3906C53.0691 12.3906 53.6004 12.4896 54.0639 12.6875C54.5275 12.8854 54.9155 13.1667 55.228 13.5312C55.5457 13.8958 55.7853 14.3333 55.9468 14.8438C56.1082 15.349 56.1889 15.9115 56.1889 16.5312V17.4688H49.4702V15.9688H53.978V15.7969C53.978 15.4844 53.9207 15.2057 53.8061 14.9609C53.6968 14.7109 53.5301 14.513 53.3061 14.3672C53.0822 14.2214 52.7957 14.1484 52.4468 14.1484C52.1499 14.1484 51.8947 14.2135 51.6811 14.3438C51.4676 14.474 51.2931 14.6562 51.1577 14.8906C51.0275 15.125 50.9285 15.401 50.8608 15.7188C50.7983 16.0312 50.7671 16.375 50.7671 16.75V17.0625C50.7671 17.401 50.8139 17.7135 50.9077 18C51.0066 18.2865 51.1447 18.5339 51.3218 18.7422C51.504 18.9505 51.7228 19.112 51.978 19.2266C52.2384 19.3411 52.5327 19.3984 52.8608 19.3984C53.2671 19.3984 53.6447 19.3203 53.9936 19.1641C54.3478 19.0026 54.6525 18.7604 54.9077 18.4375L56.0014 19.625C55.8244 19.8802 55.5822 20.125 55.2749 20.3594C54.9728 20.5938 54.6082 20.7865 54.1811 20.9375C53.754 21.0833 53.2671 21.1562 52.7202 21.1562ZM59.8452 9V21H57.5874V9H59.8452ZM65.5952 21.1562C64.9389 21.1562 64.3504 21.0521 63.8296 20.8438C63.3087 20.6302 62.866 20.3359 62.5014 19.9609C62.1421 19.5859 61.866 19.151 61.6733 18.6562C61.4806 18.1562 61.3843 17.625 61.3843 17.0625V16.75C61.3843 16.1094 61.4754 15.5234 61.6577 14.9922C61.84 14.4609 62.1004 14 62.4389 13.6094C62.7827 13.2188 63.1994 12.9193 63.6889 12.7109C64.1785 12.4974 64.7306 12.3906 65.3452 12.3906C65.9441 12.3906 66.4754 12.4896 66.9389 12.6875C67.4025 12.8854 67.7905 13.1667 68.103 13.5312C68.4207 13.8958 68.6603 14.3333 68.8218 14.8438C68.9832 15.349 69.0639 15.9115 69.0639 16.5312V17.4688H62.3452V15.9688H66.853V15.7969C66.853 15.4844 66.7957 15.2057 66.6811 14.9609C66.5718 14.7109 66.4051 14.513 66.1811 14.3672C65.9572 14.2214 65.6707 14.1484 65.3218 14.1484C65.0249 14.1484 64.7697 14.2135 64.5561 14.3438C64.3426 14.474 64.1681 14.6562 64.0327 14.8906C63.9025 15.125 63.8035 15.401 63.7358 15.7188C63.6733 16.0312 63.6421 16.375 63.6421 16.75V17.0625C63.6421 17.401 63.6889 17.7135 63.7827 18C63.8816 18.2865 64.0197 18.5339 64.1968 18.7422C64.379 18.9505 64.5978 19.112 64.853 19.2266C65.1134 19.3411 65.4077 19.3984 65.7358 19.3984C66.1421 19.3984 66.5197 19.3203 66.8686 19.1641C67.2228 19.0026 67.5275 18.7604 67.7827 18.4375L68.8764 19.625C68.6994 19.8802 68.4572 20.125 68.1499 20.3594C67.8478 20.5938 67.4832 20.7865 67.0561 20.9375C66.629 21.0833 66.1421 21.1562 65.5952 21.1562ZM74.4858 12.5469V14.1406H69.5639V12.5469H74.4858ZM70.7827 10.4609H73.0327V18.4531C73.0327 18.6979 73.0639 18.8854 73.1264 19.0156C73.1941 19.1458 73.2931 19.237 73.4233 19.2891C73.5535 19.3359 73.7176 19.3594 73.9155 19.3594C74.0561 19.3594 74.1811 19.3542 74.2905 19.3438C74.4051 19.3281 74.5014 19.3125 74.5796 19.2969L74.5874 20.9531C74.3947 21.0156 74.1863 21.0651 73.9624 21.1016C73.7384 21.138 73.491 21.1562 73.2202 21.1562C72.7254 21.1562 72.2931 21.0755 71.9233 20.9141C71.5587 20.7474 71.2775 20.4818 71.0796 20.1172C70.8816 19.7526 70.7827 19.2734 70.7827 18.6797V10.4609ZM79.6577 21.1562C79.0014 21.1562 78.4129 21.0521 77.8921 20.8438C77.3712 20.6302 76.9285 20.3359 76.5639 19.9609C76.2046 19.5859 75.9285 19.151 75.7358 18.6562C75.5431 18.1562 75.4468 17.625 75.4468 17.0625V16.75C75.4468 16.1094 75.5379 15.5234 75.7202 14.9922C75.9025 14.4609 76.1629 14 76.5014 13.6094C76.8452 13.2188 77.2619 12.9193 77.7514 12.7109C78.241 12.4974 78.7931 12.3906 79.4077 12.3906C80.0066 12.3906 80.5379 12.4896 81.0014 12.6875C81.465 12.8854 81.853 13.1667 82.1655 13.5312C82.4832 13.8958 82.7228 14.3333 82.8843 14.8438C83.0457 15.349 83.1264 15.9115 83.1264 16.5312V17.4688H76.4077V15.9688H80.9155V15.7969C80.9155 15.4844 80.8582 15.2057 80.7436 14.9609C80.6343 14.7109 80.4676 14.513 80.2436 14.3672C80.0197 14.2214 79.7332 14.1484 79.3843 14.1484C79.0874 14.1484 78.8322 14.2135 78.6186 14.3438C78.4051 14.474 78.2306 14.6562 78.0952 14.8906C77.965 15.125 77.866 15.401 77.7983 15.7188C77.7358 16.0312 77.7046 16.375 77.7046 16.75V17.0625C77.7046 17.401 77.7514 17.7135 77.8452 18C77.9441 18.2865 78.0822 18.5339 78.2593 18.7422C78.4415 18.9505 78.6603 19.112 78.9155 19.2266C79.1759 19.3411 79.4702 19.3984 79.7983 19.3984C80.2046 19.3984 80.5822 19.3203 80.9311 19.1641C81.2853 19.0026 81.59 18.7604 81.8452 18.4375L82.9389 19.625C82.7619 19.8802 82.5197 20.125 82.2124 20.3594C81.9103 20.5938 81.5457 20.7865 81.1186 20.9375C80.6915 21.0833 80.2046 21.1562 79.6577 21.1562Z" fill="white"/>
</svg>
