<svg width="120" height="32" viewBox="0 0 120 32" fill="none" xmlns="http://www.w3.org/2000/svg">
<rect width="120" height="32" rx="8" fill="#7695EC"/>
<path d="M44.9717 18.0144H47.3077C47.2608 18.78 47.0499 19.4597 46.6749 20.0535C46.3051 20.6472 45.7868 21.1108 45.1202 21.4441C44.4587 21.7774 43.6618 21.9441 42.7295 21.9441C42.0004 21.9441 41.3467 21.8191 40.7686 21.5691C40.1905 21.3139 39.6957 20.9493 39.2842 20.4753C38.878 20.0014 38.5681 19.4285 38.3545 18.7566C38.141 18.0847 38.0342 17.3321 38.0342 16.4988V15.7097C38.0342 14.8764 38.1436 14.1238 38.3624 13.4519C38.5863 12.7748 38.904 12.1993 39.3155 11.7253C39.7321 11.2514 40.2295 10.8868 40.8077 10.6316C41.3858 10.3764 42.0316 10.2488 42.7452 10.2488C43.6931 10.2488 44.4926 10.4207 45.1436 10.7644C45.7999 11.1082 46.3077 11.5821 46.667 12.1863C47.0316 12.7904 47.2504 13.4779 47.3233 14.2488H44.9795C44.9535 13.7904 44.8624 13.4024 44.7061 13.0847C44.5499 12.7618 44.3129 12.5196 43.9952 12.3582C43.6827 12.1915 43.266 12.1082 42.7452 12.1082C42.3545 12.1082 42.0134 12.1811 41.7217 12.3269C41.4301 12.4727 41.1853 12.6941 40.9874 12.991C40.7894 13.2878 40.641 13.6628 40.542 14.116C40.4483 14.5639 40.4014 15.0899 40.4014 15.6941V16.4988C40.4014 17.0873 40.4457 17.6056 40.5342 18.0535C40.6228 18.4962 40.7582 18.8712 40.9405 19.1785C41.128 19.4806 41.3676 19.7097 41.6592 19.866C41.9561 20.017 42.3129 20.0925 42.7295 20.0925C43.2191 20.0925 43.6228 20.0144 43.9405 19.8582C44.2582 19.7019 44.5004 19.4701 44.667 19.1628C44.8389 18.8556 44.9405 18.4727 44.9717 18.0144ZM50.9561 15.1785V21.7878H48.7061V13.3347H50.8233L50.9561 15.1785ZM53.503 13.28L53.4639 15.366C53.3545 15.3503 53.2217 15.3373 53.0655 15.3269C52.9144 15.3113 52.7764 15.3035 52.6514 15.3035C52.3337 15.3035 52.0577 15.3451 51.8233 15.4285C51.5941 15.5066 51.4014 15.6238 51.2452 15.78C51.0941 15.9363 50.9795 16.1264 50.9014 16.3503C50.8285 16.5743 50.7868 16.8295 50.7764 17.116L50.3233 16.9753C50.3233 16.4285 50.378 15.9259 50.4874 15.4675C50.5967 15.004 50.7556 14.6003 50.9639 14.2566C51.1775 13.9128 51.4379 13.6472 51.7452 13.4597C52.0525 13.2722 52.404 13.1785 52.7999 13.1785C52.9249 13.1785 53.0525 13.1889 53.1827 13.2097C53.3129 13.2253 53.4196 13.2488 53.503 13.28ZM58.2999 21.9441C57.6436 21.9441 57.0551 21.8399 56.5342 21.6316C56.0134 21.4181 55.5707 21.1238 55.2061 20.7488C54.8467 20.3738 54.5707 19.9389 54.378 19.4441C54.1853 18.9441 54.0889 18.4128 54.0889 17.8503V17.5378C54.0889 16.8972 54.1801 16.3113 54.3624 15.78C54.5446 15.2488 54.8051 14.7878 55.1436 14.3972C55.4874 14.0066 55.904 13.7071 56.3936 13.4988C56.8832 13.2852 57.4353 13.1785 58.0499 13.1785C58.6488 13.1785 59.1801 13.2774 59.6436 13.4753C60.1071 13.6733 60.4952 13.9545 60.8077 14.3191C61.1254 14.6837 61.365 15.1212 61.5264 15.6316C61.6879 16.1368 61.7686 16.6993 61.7686 17.3191V18.2566H55.0499V16.7566H59.5577V16.5847C59.5577 16.2722 59.5004 15.9936 59.3858 15.7488C59.2764 15.4988 59.1097 15.3009 58.8858 15.155C58.6618 15.0092 58.3754 14.9363 58.0264 14.9363C57.7295 14.9363 57.4743 15.0014 57.2608 15.1316C57.0472 15.2618 56.8728 15.4441 56.7374 15.6785C56.6071 15.9128 56.5082 16.1889 56.4405 16.5066C56.378 16.8191 56.3467 17.1628 56.3467 17.5378V17.8503C56.3467 18.1889 56.3936 18.5014 56.4874 18.7878C56.5863 19.0743 56.7243 19.3217 56.9014 19.53C57.0837 19.7384 57.3025 19.8998 57.5577 20.0144C57.8181 20.129 58.1124 20.1863 58.4405 20.1863C58.8467 20.1863 59.2243 20.1082 59.5733 19.9519C59.9275 19.7904 60.2321 19.5483 60.4874 19.2253L61.5811 20.4128C61.404 20.6681 61.1618 20.9128 60.8545 21.1472C60.5525 21.3816 60.1879 21.5743 59.7608 21.7253C59.3337 21.8712 58.8467 21.9441 58.2999 21.9441ZM67.6124 19.8816V16.116C67.6124 15.8451 67.5681 15.6134 67.4795 15.4207C67.391 15.2227 67.253 15.0691 67.0655 14.9597C66.8832 14.8503 66.6462 14.7957 66.3545 14.7957C66.1045 14.7957 65.8884 14.8399 65.7061 14.9285C65.5238 15.0118 65.3832 15.1342 65.2842 15.2957C65.1853 15.4519 65.1358 15.6368 65.1358 15.8503H62.8858C62.8858 15.491 62.9691 15.1498 63.1358 14.8269C63.3025 14.504 63.5446 14.2201 63.8624 13.9753C64.1801 13.7253 64.5577 13.53 64.9952 13.3894C65.4379 13.2488 65.9327 13.1785 66.4795 13.1785C67.1358 13.1785 67.7191 13.2878 68.2295 13.5066C68.74 13.7253 69.141 14.0535 69.4327 14.491C69.7295 14.9285 69.878 15.4753 69.878 16.1316V19.7488C69.878 20.2123 69.9066 20.5925 69.9639 20.8894C70.0212 21.1811 70.1045 21.4363 70.2139 21.655V21.7878H67.9405C67.8311 21.5587 67.7478 21.2722 67.6905 20.9285C67.6384 20.5795 67.6124 20.2306 67.6124 19.8816ZM67.9092 16.6394L67.9249 17.9128H66.667C66.3702 17.9128 66.1124 17.9467 65.8936 18.0144C65.6749 18.0821 65.4952 18.1785 65.3545 18.3035C65.2139 18.4233 65.1097 18.5639 65.042 18.7253C64.9795 18.8868 64.9483 19.0639 64.9483 19.2566C64.9483 19.4493 64.9926 19.6238 65.0811 19.78C65.1696 19.9311 65.2972 20.0509 65.4639 20.1394C65.6306 20.2227 65.8259 20.2644 66.0499 20.2644C66.3884 20.2644 66.6827 20.1967 66.9327 20.0613C67.1827 19.9259 67.3754 19.7592 67.5108 19.5613C67.6514 19.3634 67.7243 19.1759 67.7295 18.9988L68.3233 19.9519C68.24 20.1654 68.1254 20.3868 67.9795 20.616C67.8389 20.8451 67.6592 21.0613 67.4405 21.2644C67.2217 21.4623 66.9587 21.6264 66.6514 21.7566C66.3441 21.8816 65.9795 21.9441 65.5577 21.9441C65.0212 21.9441 64.5342 21.8373 64.0967 21.6238C63.6644 21.405 63.3207 21.1056 63.0655 20.7253C62.8155 20.3399 62.6905 19.9024 62.6905 19.4128C62.6905 18.9701 62.7738 18.5769 62.9405 18.2332C63.1071 17.8894 63.3519 17.6003 63.6749 17.366C64.003 17.1264 64.4118 16.9467 64.9014 16.8269C65.391 16.7019 65.9587 16.6394 66.6045 16.6394H67.9092ZM75.753 13.3347V14.9285H70.8311V13.3347H75.753ZM72.0499 11.2488H74.2999V19.241C74.2999 19.4858 74.3311 19.6733 74.3936 19.8035C74.4613 19.9337 74.5603 20.0248 74.6905 20.0769C74.8207 20.1238 74.9847 20.1472 75.1827 20.1472C75.3233 20.1472 75.4483 20.142 75.5577 20.1316C75.6722 20.116 75.7686 20.1003 75.8467 20.0847L75.8545 21.741C75.6618 21.8035 75.4535 21.8529 75.2295 21.8894C75.0056 21.9259 74.7582 21.9441 74.4874 21.9441C73.9926 21.9441 73.5603 21.8634 73.1905 21.7019C72.8259 21.5352 72.5446 21.2696 72.3467 20.905C72.1488 20.5404 72.0499 20.0613 72.0499 19.4675V11.2488ZM80.9249 21.9441C80.2686 21.9441 79.6801 21.8399 79.1592 21.6316C78.6384 21.4181 78.1957 21.1238 77.8311 20.7488C77.4717 20.3738 77.1957 19.9389 77.003 19.4441C76.8103 18.9441 76.7139 18.4128 76.7139 17.8503V17.5378C76.7139 16.8972 76.8051 16.3113 76.9874 15.78C77.1696 15.2488 77.4301 14.7878 77.7686 14.3972C78.1124 14.0066 78.529 13.7071 79.0186 13.4988C79.5082 13.2852 80.0603 13.1785 80.6749 13.1785C81.2738 13.1785 81.8051 13.2774 82.2686 13.4753C82.7321 13.6733 83.1202 13.9545 83.4327 14.3191C83.7504 14.6837 83.99 15.1212 84.1514 15.6316C84.3129 16.1368 84.3936 16.6993 84.3936 17.3191V18.2566H77.6749V16.7566H82.1827V16.5847C82.1827 16.2722 82.1254 15.9936 82.0108 15.7488C81.9014 15.4988 81.7347 15.3009 81.5108 15.155C81.2868 15.0092 81.0004 14.9363 80.6514 14.9363C80.3545 14.9363 80.0993 15.0014 79.8858 15.1316C79.6722 15.2618 79.4978 15.4441 79.3624 15.6785C79.2321 15.9128 79.1332 16.1889 79.0655 16.5066C79.003 16.8191 78.9717 17.1628 78.9717 17.5378V17.8503C78.9717 18.1889 79.0186 18.5014 79.1124 18.7878C79.2113 19.0743 79.3493 19.3217 79.5264 19.53C79.7087 19.7384 79.9275 19.8998 80.1827 20.0144C80.4431 20.129 80.7374 20.1863 81.0655 20.1863C81.4717 20.1863 81.8493 20.1082 82.1983 19.9519C82.5525 19.7904 82.8571 19.5483 83.1124 19.2253L84.2061 20.4128C84.029 20.6681 83.7868 20.9128 83.4795 21.1472C83.1775 21.3816 82.8129 21.5743 82.3858 21.7253C81.9587 21.8712 81.4717 21.9441 80.9249 21.9441Z" fill="white"/>
</svg>
