<svg width="120" height="32" viewBox="0 0 120 32" fill="none" xmlns="http://www.w3.org/2000/svg">
<rect width="120" height="32" rx="8" fill="#47B960"/>
<path d="M49.4688 18.8115C49.4688 18.6084 49.4375 18.4261 49.375 18.2646C49.3178 18.098 49.2084 17.9469 49.0469 17.8115C48.8855 17.6709 48.6589 17.5329 48.3672 17.3975C48.0756 17.262 47.698 17.1214 47.2344 16.9756C46.7188 16.8089 46.2292 16.6214 45.7657 16.4131C45.3073 16.2048 44.9011 15.9626 44.5469 15.6865C44.198 15.4053 43.9219 15.0798 43.7188 14.71C43.5209 14.3402 43.4219 13.9105 43.4219 13.4209C43.4219 12.9469 43.5261 12.5173 43.7344 12.1318C43.9428 11.7412 44.2344 11.4079 44.6094 11.1318C44.9844 10.8506 45.4271 10.6344 45.9375 10.4834C46.4532 10.3324 47.0183 10.2568 47.6329 10.2568C48.4714 10.2568 49.2032 10.4079 49.8282 10.71C50.4532 11.012 50.9375 11.4261 51.2813 11.9521C51.6303 12.4782 51.8047 13.0798 51.8047 13.7568H49.4766C49.4766 13.4235 49.4063 13.1318 49.2657 12.8818C49.1303 12.6266 48.9219 12.4261 48.6407 12.2803C48.3646 12.1344 48.0157 12.0615 47.5938 12.0615C47.1875 12.0615 46.849 12.124 46.5782 12.249C46.3073 12.3688 46.1042 12.5329 45.9688 12.7412C45.8334 12.9443 45.7657 13.1735 45.7657 13.4287C45.7657 13.6214 45.8125 13.7959 45.9063 13.9521C46.0053 14.1084 46.1511 14.2542 46.3438 14.3896C46.5365 14.5251 46.7735 14.6527 47.0547 14.7725C47.336 14.8923 47.6615 15.0094 48.0313 15.124C48.6511 15.3115 49.1954 15.5225 49.6641 15.7568C50.1381 15.9912 50.5339 16.2542 50.8516 16.5459C51.1693 16.8376 51.4089 17.1683 51.5704 17.5381C51.7318 17.9079 51.8125 18.3271 51.8125 18.7959C51.8125 19.2907 51.7162 19.7334 51.5235 20.124C51.3308 20.5146 51.0521 20.8454 50.6875 21.1162C50.323 21.387 49.8881 21.5928 49.3829 21.7334C48.8776 21.874 48.3125 21.9443 47.6875 21.9443C47.125 21.9443 46.5704 21.8714 46.0235 21.7256C45.4766 21.5745 44.9792 21.348 44.5313 21.0459C44.0886 20.7438 43.7344 20.3584 43.4688 19.8896C43.2032 19.4209 43.0704 18.8662 43.0704 18.2256H45.4219C45.4219 18.5798 45.4766 18.8792 45.586 19.124C45.6954 19.3688 45.849 19.5667 46.0469 19.7178C46.25 19.8688 46.4896 19.9782 46.7657 20.0459C47.0469 20.1136 47.3542 20.1475 47.6875 20.1475C48.0938 20.1475 48.4271 20.0902 48.6875 19.9756C48.9532 19.861 49.1485 19.7021 49.2735 19.499C49.4037 19.2959 49.4688 19.0667 49.4688 18.8115ZM57.8282 19.8818V16.1162C57.8282 15.8454 57.7839 15.6136 57.6954 15.4209C57.6068 15.223 57.4688 15.0693 57.2813 14.96C57.099 14.8506 56.862 14.7959 56.5704 14.7959C56.3204 14.7959 56.1042 14.8402 55.9219 14.9287C55.7396 15.012 55.599 15.1344 55.5 15.2959C55.4011 15.4521 55.3516 15.637 55.3516 15.8506H53.1016C53.1016 15.4912 53.1849 15.1501 53.3516 14.8271C53.5183 14.5042 53.7605 14.2204 54.0782 13.9756C54.3959 13.7256 54.7735 13.5303 55.211 13.3896C55.6537 13.249 56.1485 13.1787 56.6954 13.1787C57.3516 13.1787 57.9349 13.2881 58.4454 13.5068C58.9558 13.7256 59.3568 14.0537 59.6485 14.4912C59.9454 14.9287 60.0938 15.4756 60.0938 16.1318V19.749C60.0938 20.2126 60.1224 20.5928 60.1797 20.8896C60.237 21.1813 60.3204 21.4365 60.4297 21.6553V21.7881H58.1563C58.0469 21.5589 57.9636 21.2725 57.9063 20.9287C57.8542 20.5798 57.8282 20.2308 57.8282 19.8818ZM58.125 16.6396L58.1407 17.9131H56.8829C56.586 17.9131 56.3282 17.9469 56.1094 18.0146C55.8907 18.0824 55.711 18.1787 55.5704 18.3037C55.4297 18.4235 55.3256 18.5641 55.2579 18.7256C55.1954 18.887 55.1641 19.0641 55.1641 19.2568C55.1641 19.4495 55.2084 19.624 55.2969 19.7803C55.3855 19.9313 55.5131 20.0511 55.6797 20.1396C55.8464 20.223 56.0417 20.2646 56.2657 20.2646C56.6042 20.2646 56.8985 20.1969 57.1485 20.0615C57.3985 19.9261 57.5912 19.7594 57.7266 19.5615C57.8672 19.3636 57.9401 19.1761 57.9454 18.999L58.5391 19.9521C58.4558 20.1657 58.3412 20.387 58.1954 20.6162C58.0547 20.8454 57.875 21.0615 57.6563 21.2646C57.4375 21.4626 57.1745 21.6266 56.8672 21.7568C56.5599 21.8818 56.1954 21.9443 55.7735 21.9443C55.237 21.9443 54.75 21.8376 54.3125 21.624C53.8803 21.4053 53.5365 21.1058 53.2813 20.7256C53.0313 20.3402 52.9063 19.9027 52.9063 19.4131C52.9063 18.9704 52.9896 18.5771 53.1563 18.2334C53.323 17.8896 53.5678 17.6006 53.8907 17.3662C54.2188 17.1266 54.6276 16.9469 55.1172 16.8271C55.6068 16.7021 56.1745 16.6396 56.8204 16.6396H58.125ZM64.5782 20.1475L66.4532 13.335H68.8047L65.9532 21.7881H64.5313L64.5782 20.1475ZM63.2891 13.335L65.1719 20.1553L65.211 21.7881H63.7813L60.9297 13.335H63.2891ZM73.5938 21.9443C72.9375 21.9443 72.349 21.8402 71.8282 21.6318C71.3073 21.4183 70.8646 21.124 70.5 20.749C70.1407 20.374 69.8646 19.9391 69.6719 19.4443C69.4792 18.9443 69.3829 18.4131 69.3829 17.8506V17.5381C69.3829 16.8975 69.474 16.3115 69.6563 15.7803C69.8386 15.249 70.099 14.7881 70.4375 14.3975C70.7813 14.0068 71.198 13.7074 71.6875 13.499C72.1771 13.2855 72.7292 13.1787 73.3438 13.1787C73.9428 13.1787 74.474 13.2777 74.9375 13.4756C75.4011 13.6735 75.7891 13.9548 76.1016 14.3193C76.4193 14.6839 76.6589 15.1214 76.8204 15.6318C76.9818 16.137 77.0625 16.6995 77.0625 17.3193V18.2568H70.3438V16.7568H74.8516V16.585C74.8516 16.2725 74.7943 15.9938 74.6797 15.749C74.5704 15.499 74.4037 15.3011 74.1797 15.1553C73.9558 15.0094 73.6693 14.9365 73.3204 14.9365C73.0235 14.9365 72.7683 15.0016 72.5547 15.1318C72.3412 15.262 72.1667 15.4443 72.0313 15.6787C71.9011 15.9131 71.8021 16.1891 71.7344 16.5068C71.6719 16.8193 71.6407 17.1631 71.6407 17.5381V17.8506C71.6407 18.1891 71.6875 18.5016 71.7813 18.7881C71.8803 19.0745 72.0183 19.3219 72.1954 19.5303C72.3776 19.7386 72.5964 19.9001 72.8516 20.0146C73.112 20.1292 73.4063 20.1865 73.7344 20.1865C74.1407 20.1865 74.5183 20.1084 74.8672 19.9521C75.2214 19.7907 75.5261 19.5485 75.7813 19.2256L76.875 20.4131C76.698 20.6683 76.4558 20.9131 76.1485 21.1475C75.8464 21.3818 75.4818 21.5745 75.0547 21.7256C74.6276 21.8714 74.1407 21.9443 73.5938 21.9443Z" fill="white"/>
</svg>
