<svg width="120" height="32" viewBox="0 0 120 32" fill="none" xmlns="http://www.w3.org/2000/svg">
<rect x="0.5" y="0.5" width="119" height="31" rx="7.5" fill="white" stroke="#999999"/>
<path d="M41.1229 17.2266H43.4589C43.412 17.9922 43.201 18.6719 42.826 19.2656C42.4563 19.8594 41.938 20.3229 41.2714 20.6562C40.6099 20.9896 39.813 21.1562 38.8807 21.1562C38.1516 21.1562 37.4979 21.0312 36.9198 20.7812C36.3417 20.526 35.8469 20.1615 35.4354 19.6875C35.0292 19.2135 34.7193 18.6406 34.5057 17.9688C34.2922 17.2969 34.1854 16.5443 34.1854 15.7109V14.9219C34.1854 14.0885 34.2948 13.3359 34.5135 12.6641C34.7375 11.987 35.0552 11.4115 35.4667 10.9375C35.8833 10.4635 36.3807 10.099 36.9589 9.84375C37.537 9.58854 38.1828 9.46094 38.8964 9.46094C39.8443 9.46094 40.6438 9.63281 41.2948 9.97656C41.951 10.3203 42.4589 10.7943 42.8182 11.3984C43.1828 12.0026 43.4016 12.6901 43.4745 13.4609H41.1307C41.1047 13.0026 41.0135 12.6146 40.8573 12.2969C40.701 11.974 40.4641 11.7318 40.1464 11.5703C39.8339 11.4036 39.4172 11.3203 38.8964 11.3203C38.5057 11.3203 38.1646 11.3932 37.8729 11.5391C37.5813 11.6849 37.3365 11.9062 37.1385 12.2031C36.9406 12.5 36.7922 12.875 36.6932 13.3281C36.5995 13.776 36.5526 14.3021 36.5526 14.9062V15.7109C36.5526 16.2995 36.5969 16.8177 36.6854 17.2656C36.774 17.7083 36.9094 18.0833 37.0917 18.3906C37.2792 18.6927 37.5188 18.9219 37.8104 19.0781C38.1073 19.2292 38.4641 19.3047 38.8807 19.3047C39.3703 19.3047 39.774 19.2266 40.0917 19.0703C40.4094 18.9141 40.6516 18.6823 40.8182 18.375C40.9901 18.0677 41.0917 17.6849 41.1229 17.2266ZM49.4198 19.0938V15.3281C49.4198 15.0573 49.3755 14.8255 49.287 14.6328C49.1984 14.4349 49.0604 14.2812 48.8729 14.1719C48.6906 14.0625 48.4537 14.0078 48.162 14.0078C47.912 14.0078 47.6958 14.0521 47.5135 14.1406C47.3313 14.224 47.1906 14.3464 47.0917 14.5078C46.9927 14.6641 46.9432 14.849 46.9432 15.0625H44.6932C44.6932 14.7031 44.7766 14.362 44.9432 14.0391C45.1099 13.7161 45.3521 13.4323 45.6698 13.1875C45.9875 12.9375 46.3651 12.7422 46.8026 12.6016C47.2453 12.4609 47.7401 12.3906 48.287 12.3906C48.9432 12.3906 49.5266 12.5 50.037 12.7188C50.5474 12.9375 50.9484 13.2656 51.2401 13.7031C51.537 14.1406 51.6854 14.6875 51.6854 15.3438V18.9609C51.6854 19.4245 51.7141 19.8047 51.7714 20.1016C51.8287 20.3932 51.912 20.6484 52.0214 20.8672V21H49.7479C49.6385 20.7708 49.5552 20.4844 49.4979 20.1406C49.4458 19.7917 49.4198 19.4427 49.4198 19.0938ZM49.7167 15.8516L49.7323 17.125H48.4745C48.1776 17.125 47.9198 17.1589 47.701 17.2266C47.4823 17.2943 47.3026 17.3906 47.162 17.5156C47.0214 17.6354 46.9172 17.776 46.8495 17.9375C46.787 18.099 46.7557 18.276 46.7557 18.4688C46.7557 18.6615 46.8 18.8359 46.8885 18.9922C46.9771 19.1432 47.1047 19.263 47.2714 19.3516C47.438 19.4349 47.6333 19.4766 47.8573 19.4766C48.1958 19.4766 48.4901 19.4089 48.7401 19.2734C48.9901 19.138 49.1828 18.9714 49.3182 18.7734C49.4589 18.5755 49.5318 18.388 49.537 18.2109L50.1307 19.1641C50.0474 19.3776 49.9328 19.599 49.787 19.8281C49.6464 20.0573 49.4667 20.2734 49.2479 20.4766C49.0292 20.6745 48.7662 20.8385 48.4589 20.9688C48.1516 21.0938 47.787 21.1562 47.3651 21.1562C46.8287 21.1562 46.3417 21.0495 45.9042 20.8359C45.4719 20.6172 45.1281 20.3177 44.8729 19.9375C44.6229 19.5521 44.4979 19.1146 44.4979 18.625C44.4979 18.1823 44.5813 17.7891 44.7479 17.4453C44.9146 17.1016 45.1594 16.8125 45.4823 16.5781C45.8104 16.3385 46.2193 16.1589 46.7089 16.0391C47.1984 15.9141 47.7662 15.8516 48.412 15.8516H49.7167ZM55.6229 14.3516V21H53.3729V12.5469H55.4823L55.6229 14.3516ZM55.2948 16.4766H54.6854C54.6854 15.8516 54.7662 15.2891 54.9276 14.7891C55.0891 14.2839 55.3156 13.8542 55.6073 13.5C55.899 13.1406 56.2453 12.8672 56.6464 12.6797C57.0526 12.487 57.5057 12.3906 58.0057 12.3906C58.4016 12.3906 58.7635 12.4479 59.0917 12.5625C59.4198 12.6771 59.701 12.8594 59.9354 13.1094C60.175 13.3594 60.3573 13.6901 60.4823 14.1016C60.6125 14.513 60.6776 15.0156 60.6776 15.6094V21H58.412V15.6016C58.412 15.2266 58.3599 14.9349 58.2557 14.7266C58.1516 14.5182 57.9979 14.3724 57.7948 14.2891C57.5969 14.2005 57.3521 14.1562 57.0604 14.1562C56.7583 14.1562 56.4953 14.2161 56.2714 14.3359C56.0526 14.4557 55.8703 14.6224 55.7245 14.8359C55.5839 15.0443 55.4771 15.2891 55.4042 15.5703C55.3313 15.8516 55.2948 16.1536 55.2948 16.4766ZM65.8807 19.3984C66.1568 19.3984 66.4016 19.3464 66.6151 19.2422C66.8287 19.1328 66.9953 18.9818 67.1151 18.7891C67.2401 18.5911 67.3052 18.3594 67.3104 18.0938H69.4276C69.4224 18.6875 69.2635 19.2161 68.951 19.6797C68.6385 20.138 68.2193 20.5 67.6932 20.7656C67.1672 21.026 66.5787 21.1562 65.9276 21.1562C65.2714 21.1562 64.6984 21.0469 64.2089 20.8281C63.7245 20.6094 63.3208 20.3073 62.9979 19.9219C62.675 19.5312 62.4328 19.0781 62.2714 18.5625C62.1099 18.0417 62.0292 17.4844 62.0292 16.8906V16.6641C62.0292 16.0651 62.1099 15.5078 62.2714 14.9922C62.4328 14.4714 62.675 14.0182 62.9979 13.6328C63.3208 13.2422 63.7245 12.9375 64.2089 12.7188C64.6932 12.5 65.2609 12.3906 65.912 12.3906C66.6047 12.3906 67.2115 12.5234 67.7323 12.7891C68.2583 13.0547 68.6698 13.4349 68.9667 13.9297C69.2688 14.4193 69.4224 15 69.4276 15.6719H67.3104C67.3052 15.3906 67.2453 15.1354 67.1307 14.9062C67.0214 14.6771 66.8599 14.4948 66.6464 14.3594C66.438 14.2188 66.1802 14.1484 65.8729 14.1484C65.5448 14.1484 65.2766 14.2188 65.0682 14.3594C64.8599 14.4948 64.6984 14.6823 64.5839 14.9219C64.4693 15.1562 64.3885 15.4245 64.3417 15.7266C64.3 16.0234 64.2792 16.3359 64.2792 16.6641V16.8906C64.2792 17.2188 64.3 17.5339 64.3417 17.8359C64.3833 18.138 64.4615 18.4062 64.576 18.6406C64.6958 18.875 64.8599 19.0599 65.0682 19.1953C65.2766 19.3307 65.5474 19.3984 65.8807 19.3984ZM74.6229 21.1562C73.9667 21.1562 73.3781 21.0521 72.8573 20.8438C72.3365 20.6302 71.8938 20.3359 71.5292 19.9609C71.1698 19.5859 70.8938 19.151 70.701 18.6562C70.5083 18.1562 70.412 17.625 70.412 17.0625V16.75C70.412 16.1094 70.5031 15.5234 70.6854 14.9922C70.8677 14.4609 71.1281 14 71.4667 13.6094C71.8104 13.2188 72.2271 12.9193 72.7167 12.7109C73.2063 12.4974 73.7583 12.3906 74.3729 12.3906C74.9719 12.3906 75.5031 12.4896 75.9667 12.6875C76.4302 12.8854 76.8182 13.1667 77.1307 13.5312C77.4484 13.8958 77.688 14.3333 77.8495 14.8438C78.0109 15.349 78.0917 15.9115 78.0917 16.5312V17.4688H71.3729V15.9688H75.8807V15.7969C75.8807 15.4844 75.8234 15.2057 75.7089 14.9609C75.5995 14.7109 75.4328 14.513 75.2089 14.3672C74.9849 14.2214 74.6984 14.1484 74.3495 14.1484C74.0526 14.1484 73.7974 14.2135 73.5839 14.3438C73.3703 14.474 73.1958 14.6562 73.0604 14.8906C72.9302 15.125 72.8313 15.401 72.7635 15.7188C72.701 16.0312 72.6698 16.375 72.6698 16.75V17.0625C72.6698 17.401 72.7167 17.7135 72.8104 18C72.9094 18.2865 73.0474 18.5339 73.2245 18.7422C73.4068 18.9505 73.6255 19.112 73.8807 19.2266C74.1412 19.3411 74.4354 19.3984 74.7635 19.3984C75.1698 19.3984 75.5474 19.3203 75.8964 19.1641C76.2505 19.0026 76.5552 18.7604 76.8104 18.4375L77.9042 19.625C77.7271 19.8802 77.4849 20.125 77.1776 20.3594C76.8755 20.5938 76.5109 20.7865 76.0839 20.9375C75.6568 21.0833 75.1698 21.1562 74.6229 21.1562ZM81.7479 9V21H79.4901V9H81.7479Z" fill="black"/>
</svg>
