<svg width="111" height="32" viewBox="0 0 111 32" fill="none" xmlns="http://www.w3.org/2000/svg">
<rect width="111" height="32" rx="8" fill="#7695EC"/>
<path d="M39.6484 19.9598V21.7879H33.5938V19.9598H39.6484ZM34.3594 10.4129V21.7879H32.0156V10.4129H34.3594ZM38.8594 15.0457V16.827H33.5938V15.0457H38.8594ZM39.6406 10.4129V12.2488H33.5938V10.4129H39.6406ZM50.2734 10.4129V21.7879H47.9297L43.3594 14.1629V21.7879H41.0156V10.4129H43.3594L47.9375 18.0457V10.4129H50.2734ZM57.1641 10.4129V21.7879H54.8281V10.4129H57.1641ZM60.6641 10.4129V12.2488H51.3828V10.4129H60.6641ZM69.6328 19.9598V21.7879H63.5781V19.9598H69.6328ZM64.3438 10.4129V21.7879H62V10.4129H64.3438ZM68.8438 15.0457V16.827H63.5781V15.0457H68.8438ZM69.625 10.4129V12.2488H63.5781V10.4129H69.625ZM71 10.4129H75.2422C76.112 10.4129 76.8594 10.5431 77.4844 10.8035C78.1146 11.0639 78.599 11.4494 78.9375 11.9598C79.276 12.4702 79.4453 13.0978 79.4453 13.8426C79.4453 14.452 79.3411 14.9754 79.1328 15.4129C78.9297 15.8452 78.6406 16.2072 78.2656 16.4988C77.8958 16.7853 77.4609 17.0145 76.9609 17.1863L76.2188 17.577H72.5312L72.5156 15.7488H75.2578C75.6693 15.7488 76.0104 15.6759 76.2812 15.5301C76.5521 15.3843 76.7552 15.1811 76.8906 14.9207C77.0312 14.6603 77.1016 14.3582 77.1016 14.0145C77.1016 13.6499 77.0339 13.3348 76.8984 13.0692C76.763 12.8035 76.5573 12.6004 76.2812 12.4598C76.0052 12.3192 75.6589 12.2488 75.2422 12.2488H73.3438V21.7879H71V10.4129ZM77.3594 21.7879L74.7656 16.7176L77.2422 16.702L79.8672 21.6785V21.7879H77.3594Z" fill="white"/>
</svg>
